ffmpeg started on 2025-06-06 at 16:12:55
Report written to "D:\Convert\FFMetrics\reports\psnr_report-6.txt"
Log level: 32
Command line:
ffmpeg -hide_banner -nostdin -i "G:\\\xc0\xed\xe8\xec\xe5\\\xce\xed\xe3\xee\xe8\xed\xe3\xe8\\!_36_\xce\xf1\xe5\xed\xfc_2024\\DreamCast\\\xcf\xe5\xf0\xe5\xf0\xee\xe6\xe4\xe5\xed\xe8\xe5 \xe2 \xe0\xf0\xe8\xf1\xf2\xee\xea\xf0\xe0\xf2\xe0 \xf1\xee \xf1\xef\xee\xf1\xee\xe1\xed\xee\xf1\xf2\xfc\xfe \xe0\xed\xe0\xeb\xe8\xe7\xe0\\\xd2\xc2-2\\DC_Tensei_Kizoku_Kantei_Skill_de_Nariagaru_S2_03_Telegram_HEVC.mkv" -i "G:\\\xc0\xed\xe8\xec\xe5\\\xce\xed\xe3\xee\xe8\xed\xe3\xe8\\!_36_\xce\xf1\xe5\xed\xfc_2024\\DreamCast\\\xcf\xe5\xf0\xe5\xf0\xee\xe6\xe4\xe5\xed\xe8\xe5 \xe2 \xe0\xf0\xe8\xf1\xf2\xee\xea\xf0\xe0\xf2\xe0 \xf1\xee \xf1\xef\xee\xf1\xee\xe1\xed\xee\xf1\xf2\xfc\xfe \xe0\xed\xe0\xeb\xe8\xe7\xe0\\\xd2\xc2-2\\DC_Tensei_Kizoku_Kantei_Skill_de_Nariagaru_S2_03_Telegram.mp4" -lavfi "[0:v]settb=AVTB,setpts=PTS-STARTPTS,format=pix_fmts=yuv420p10,fps=24000/1001,scale=1920:1080:flags=bicubic[main];[1:v]settb=AVTB,setpts=PTS-STARTPTS,format=pix_fmts=yuv420p,fps=24000/1001,scale=1920:1080:flags=bicubic[ref];[main][ref]psnr=eof_action=endall:stats_file='D\\:/Convert/FFMetrics/logs/psnr_logfile-6.txt'" -f null -
Input #0, matroska,webm, from 'G:\Аниме\Онгоинги\!_36_Осень_2024\DreamCast\Перерождение в аристократа со способностью анализа\ТВ-2\DC_Tensei_Kizoku_Kantei_Skill_de_Nariagaru_S2_03_Telegram_HEVC.mkv':
  Metadata:
    COMPATIBLE_BRANDS: isomiso2avc1mp41
    MAJOR_BRAND     : isom
    MINOR_VERSION   : 512
    ENCODER         : Lavf61.7.100
  Duration: 00:23:47.24, start: -0.021000, bitrate: 1222 kb/s
  Stream #0:0: Video: hevc (Main 10), yuv420p10le(tv, bt709, progressive), 1920x1080 [SAR 1:1 DAR 16:9], 23.98 fps, 23.98 tbr, 1k tbn (default)
      Metadata:
        HANDLER_NAME    : VideoHandler
        VENDOR_ID       : [0][0][0][0]
        ENCODER         : Lavc61.19.100 libx265
        BPS             : 1025348
        DURATION        : 00:23:46.508708333
        NUMBER_OF_FRAMES: 34202
        NUMBER_OF_BYTES : 182833392
        _STATISTICS_WRITING_APP: mkvpropedit v66.0.0 ('Josie') 64-bit
        _STATISTICS_WRITING_DATE_UTC: 2025-06-02 09:23:07
        _STATISTICS_TAGS: BPS DURATION NUMBER_OF_FRAMES NUMBER_OF_BYTES
  Stream #0:1: Audio: aac (LC), 48000 Hz, stereo, fltp (default)
      Metadata:
        HANDLER_NAME    : SoundHandler
        VENDOR_ID       : [0][0][0][0]
        ENCODER         : Lavc61.19.100 aac
        BPS             : 193370
        DURATION        : 00:23:47.242000000
        NUMBER_OF_FRAMES: 66903
        NUMBER_OF_BYTES : 34498309
        _STATISTICS_WRITING_APP: mkvpropedit v66.0.0 ('Josie') 64-bit
        _STATISTICS_WRITING_DATE_UTC: 2025-06-02 09:23:07
        _STATISTICS_TAGS: BPS DURATION NUMBER_OF_FRAMES NUMBER_OF_BYTES
Input #1, mov,mp4,m4a,3gp,3g2,mj2, from 'G:\Аниме\Онгоинги\!_36_Осень_2024\DreamCast\Перерождение в аристократа со способностью анализа\ТВ-2\DC_Tensei_Kizoku_Kantei_Skill_de_Nariagaru_S2_03_Telegram.mp4':
  Metadata:
    major_brand     : isom
    minor_version   : 512
    compatible_brands: isomiso2avc1mp41
    encoder         : Lavf60.16.100
  Duration: 00:23:47.18, start: 0.000000, bitrate: 3815 kb/s
  Stream #1:0[0x1](und): Video: h264 (High) (avc1 / 0x31637661), yuv420p(tv, bt709, progressive), 1920x1080 [SAR 1:1 DAR 16:9], 3669 kb/s, 23.98 fps, 23.98 tbr, 24k tbn (default)
      Metadata:
        handler_name    : VideoHandler
        vendor_id       : [0][0][0][0]
        encoder         : Lavc60.31.102 h264_qsv
  Stream #1:1[0x2](und): Audio: aac (HE-AACv2) (mp4a / 0x6134706D), 48000 Hz, stereo, fltp, 144 kb/s (default)
      Metadata:
        handler_name    : SoundHandler
        vendor_id       : [0][0][0][0]
Stream mapping:
  Stream #0:0 (hevc) -> settb:default
  Stream #1:0 (h264) -> settb:default
  psnr:default -> Stream #0:0 (wrapped_avframe)
  Stream #0:1 -> #0:1 (aac (native) -> pcm_s16le (native))
Output #0, null, to 'pipe:':
  Metadata:
    COMPATIBLE_BRANDS: isomiso2avc1mp41
    MAJOR_BRAND     : isom
    MINOR_VERSION   : 512
    encoder         : Lavf61.7.100
  Stream #0:0: Video: wrapped_avframe, yuv420p10le(tv, bt709, progressive), 1920x1080 [SAR 1:1 DAR 16:9], q=2-31, 200 kb/s, 23.98 fps, 23.98 tbn
      Metadata:
        encoder         : Lavc61.19.100 wrapped_avframe
  Stream #0:1: Audio: pcm_s16le, 48000 Hz, stereo, s16, 1536 kb/s (default)
      Metadata:
        HANDLER_NAME    : SoundHandler
        VENDOR_ID       : [0][0][0][0]
        _STATISTICS_TAGS: BPS DURATION NUMBER_OF_FRAMES NUMBER_OF_BYTES
        BPS             : 193370
        DURATION        : 00:23:47.242000000
        NUMBER_OF_FRAMES: 66903
        NUMBER_OF_BYTES : 34498309
        _STATISTICS_WRITING_APP: mkvpropedit v66.0.0 ('Josie') 64-bit
        _STATISTICS_WRITING_DATE_UTC: 2025-06-02 09:23:07
        encoder         : Lavc61.19.100 pcm_s16le
frame=  179 fps=0.0 q=-0.0 size=N/A time=00:00:07.46 bitrate=N/A speed=14.4x    frame=  455 fps=439 q=-0.0 size=N/A time=00:00:18.97 bitrate=N/A speed=18.3x    frame=  730 fps=473 q=-0.0 size=N/A time=00:00:30.44 bitrate=N/A speed=19.7x    frame= 1025 fps=496 q=-0.0 size=N/A time=00:00:42.75 bitrate=N/A speed=20.7x    frame= 1271 fps=494 q=-0.0 size=N/A time=00:00:53.01 bitrate=N/A speed=20.6x    frame= 1517 fps=490 q=-0.0 size=N/A time=00:01:03.27 bitrate=N/A speed=20.4x    frame= 1767 fps=489 q=-0.0 size=N/A time=00:01:13.69 bitrate=N/A speed=20.4x    frame= 1999 fps=485 q=-0.0 size=N/A time=00:01:23.37 bitrate=N/A speed=20.2x    frame= 2258 fps=486 q=-0.0 size=N/A time=00:01:34.17 bitrate=N/A speed=20.3x    frame= 2531 fps=490 q=-0.0 size=N/A time=00:01:45.56 bitrate=N/A speed=20.4x    frame= 2793 fps=491 q=-0.0 size=N/A time=00:01:56.49 bitrate=N/A speed=20.5x    frame= 3045 fps=491 q=-0.0 size=N/A time=00:02:07.00 bitrate=N/A speed=20.5x    frame= 3281 fps=488 q=-0.0 size=N/A time=00:02:16.84 bitrate=N/A speed=20.4x    frame= 3458 fps=478 q=-0.0 size=N/A time=00:02:24.22 bitrate=N/A speed=19.9x    frame= 3655 fps=471 q=-0.0 size=N/A time=00:02:32.44 bitrate=N/A speed=19.7x    frame= 3852 fps=465 q=-0.0 size=N/A time=00:02:40.66 bitrate=N/A speed=19.4x    frame= 4023 fps=457 q=-0.0 size=N/A time=00:02:47.79 bitrate=N/A speed=19.1x    frame= 4179 fps=449 q=-0.0 size=N/A time=00:02:54.29 bitrate=N/A speed=18.7x    frame= 4368 fps=444 q=-0.0 size=N/A time=00:03:02.18 bitrate=N/A speed=18.5x    frame= 4534 fps=439 q=-0.0 size=N/A time=00:03:09.10 bitrate=N/A speed=18.3x    frame= 4732 fps=436 q=-0.0 size=N/A time=00:03:17.36 bitrate=N/A speed=18.2x    frame= 4903 fps=431 q=-0.0 size=N/A time=00:03:24.49 bitrate=N/A speed=  18x    frame= 5079 fps=427 q=-0.0 size=N/A time=00:03:31.83 bitrate=N/A speed=17.8x    frame= 5263 fps=424 q=-0.0 size=N/A time=00:03:39.51 bitrate=N/A speed=17.7x    frame= 5487 fps=425 q=-0.0 size=N/A time=00:03:48.85 bitrate=N/A speed=17.7x    frame= 5760 fps=428 q=-0.0 size=N/A time=00:04:00.24 bitrate=N/A speed=17.9x    frame= 6028 fps=432 q=-0.0 size=N/A time=00:04:11.41 bitrate=N/A speed=  18x    frame= 6297 fps=435 q=-0.0 size=N/A time=00:04:22.63 bitrate=N/A speed=18.1x    frame= 6526 fps=435 q=-0.0 size=N/A time=00:04:32.18 bitrate=N/A speed=18.2x    frame= 6781 fps=438 q=-0.0 size=N/A time=00:04:42.82 bitrate=N/A speed=18.3x    frame= 7041 fps=440 q=-0.0 size=N/A time=00:04:53.66 bitrate=N/A speed=18.3x    frame= 7295 fps=441 q=-0.0 size=N/A time=00:05:04.26 bitrate=N/A speed=18.4x    frame= 7547 fps=443 q=-0.0 size=N/A time=00:05:14.77 bitrate=N/A speed=18.5x    frame= 7782 fps=443 q=-0.0 size=N/A time=00:05:24.57 bitrate=N/A speed=18.5x    frame= 8004 fps=443 q=-0.0 size=N/A time=00:05:33.83 bitrate=N/A speed=18.5x    frame= 8186 fps=440 q=-0.0 size=N/A time=00:05:41.42 bitrate=N/A speed=18.4x    frame= 8410 fps=440 q=-0.0 size=N/A time=00:05:50.76 bitrate=N/A speed=18.4x    frame= 8657 fps=441 q=-0.0 size=N/A time=00:06:01.06 bitrate=N/A speed=18.4x    frame= 8926 fps=443 q=-0.0 size=N/A time=00:06:12.28 bitrate=N/A speed=18.5x    frame= 9187 fps=445 q=-0.0 size=N/A time=00:06:23.17 bitrate=N/A speed=18.6x    frame= 9428 fps=445 q=-0.0 size=N/A time=00:06:33.22 bitrate=N/A speed=18.6x    frame= 9673 fps=446 q=-0.0 size=N/A time=00:06:43.44 bitrate=N/A speed=18.6x    frame= 9935 fps=447 q=-0.0 size=N/A time=00:06:54.37 bitrate=N/A speed=18.7x    frame=10188 fps=448 q=-0.0 size=N/A time=00:07:04.92 bitrate=N/A speed=18.7x    frame=10420 fps=449 q=-0.0 size=N/A time=00:07:14.60 bitrate=N/A speed=18.7x    frame=10677 fps=450 q=-0.0 size=N/A time=00:07:25.31 bitrate=N/A speed=18.7x    frame=10927 fps=450 q=-0.0 size=N/A time=00:07:35.74 bitrate=N/A speed=18.8x    frame=11188 fps=451 q=-0.0 size=N/A time=00:07:46.63 bitrate=N/A speed=18.8x    frame=11436 fps=452 q=-0.0 size=N/A time=00:07:56.97 bitrate=N/A speed=18.9x    frame=11692 fps=453 q=-0.0 size=N/A time=00:08:07.65 bitrate=N/A speed=18.9x    frame=11935 fps=453 q=-0.0 size=N/A time=00:08:17.78 bitrate=N/A speed=18.9x    frame=12181 fps=454 q=-0.0 size=N/A time=00:08:28.04 bitrate=N/A speed=18.9x    frame=12439 fps=455 q=-0.0 size=N/A time=00:08:38.80 bitrate=N/A speed=  19x    frame=12683 fps=455 q=-0.0 size=N/A time=00:08:48.98 bitrate=N/A speed=  19x    frame=12939 fps=456 q=-0.0 size=N/A time=00:08:59.66 bitrate=N/A speed=  19x    frame=13160 fps=455 q=-0.0 size=N/A time=00:09:08.88 bitrate=N/A speed=  19x    frame=13412 fps=456 q=-0.0 size=N/A time=00:09:19.39 bitrate=N/A speed=  19x    frame=13668 fps=456 q=-0.0 size=N/A time=00:09:30.06 bitrate=N/A speed=  19x    frame=13915 fps=457 q=-0.0 size=N/A time=00:09:40.37 bitrate=N/A speed=  19x    frame=14152 fps=457 q=-0.0 size=N/A time=00:09:50.25 bitrate=N/A speed=  19x    frame=14378 fps=457 q=-0.0 size=N/A time=00:09:59.68 bitrate=N/A speed=  19x    frame=14602 fps=456 q=-0.0 size=N/A time=00:10:09.02 bitrate=N/A speed=  19x    frame=14809 fps=455 q=-0.0 size=N/A time=00:10:17.65 bitrate=N/A speed=  19x    frame=15069 fps=456 q=-0.0 size=N/A time=00:10:28.50 bitrate=N/A speed=  19x    frame=15329 fps=457 q=-0.0 size=N/A time=00:10:39.34 bitrate=N/A speed=  19x    frame=15610 fps=458 q=-0.0 size=N/A time=00:10:51.06 bitrate=N/A speed=19.1x    frame=15848 fps=458 q=-0.0 size=N/A time=00:11:00.99 bitrate=N/A speed=19.1x    frame=16120 fps=459 q=-0.0 size=N/A time=00:11:12.33 bitrate=N/A speed=19.2x    frame=16362 fps=459 q=-0.0 size=N/A time=00:11:22.43 bitrate=N/A speed=19.2x    frame=16592 fps=459 q=-0.0 size=N/A time=00:11:32.02 bitrate=N/A speed=19.2x    frame=16835 fps=459 q=-0.0 size=N/A time=00:11:42.15 bitrate=N/A speed=19.2x    frame=17078 fps=459 q=-0.0 size=N/A time=00:11:52.29 bitrate=N/A speed=19.2x    frame=17342 fps=460 q=-0.0 size=N/A time=00:12:03.30 bitrate=N/A speed=19.2x    frame=17590 fps=460 q=-0.0 size=N/A time=00:12:13.64 bitrate=N/A speed=19.2x    frame=17840 fps=461 q=-0.0 size=N/A time=00:12:24.07 bitrate=N/A speed=19.2x    frame=18090 fps=461 q=-0.0 size=N/A time=00:12:34.50 bitrate=N/A speed=19.2x    frame=18343 fps=461 q=-0.0 size=N/A time=00:12:45.05 bitrate=N/A speed=19.2x    frame=18604 fps=462 q=-0.0 size=N/A time=00:12:55.94 bitrate=N/A speed=19.3x    frame=18876 fps=463 q=-0.0 size=N/A time=00:13:07.28 bitrate=N/A speed=19.3x    frame=19140 fps=463 q=-0.0 size=N/A time=00:13:18.29 bitrate=N/A speed=19.3x    frame=19381 fps=464 q=-0.0 size=N/A time=00:13:28.34 bitrate=N/A speed=19.3x    frame=19627 fps=464 q=-0.0 size=N/A time=00:13:38.60 bitrate=N/A speed=19.3x    frame=19848 fps=463 q=-0.0 size=N/A time=00:13:47.82 bitrate=N/A speed=19.3x    frame=20078 fps=463 q=-0.0 size=N/A time=00:13:57.41 bitrate=N/A speed=19.3x    frame=20294 fps=463 q=-0.0 size=N/A time=00:14:06.42 bitrate=N/A speed=19.3x    frame=20528 fps=462 q=-0.0 size=N/A time=00:14:16.18 bitrate=N/A speed=19.3x    frame=20779 fps=463 q=-0.0 size=N/A time=00:14:26.65 bitrate=N/A speed=19.3x    frame=21041 fps=463 q=-0.0 size=N/A time=00:14:37.58 bitrate=N/A speed=19.3x    frame=21256 fps=462 q=-0.0 size=N/A time=00:14:46.55 bitrate=N/A speed=19.3x    frame=21458 fps=462 q=-0.0 size=N/A time=00:14:54.97 bitrate=N/A speed=19.3x    frame=21720 fps=462 q=-0.0 size=N/A time=00:15:05.90 bitrate=N/A speed=19.3x    frame=21957 fps=462 q=-0.0 size=N/A time=00:15:15.78 bitrate=N/A speed=19.3x    frame=22199 fps=462 q=-0.0 size=N/A time=00:15:25.88 bitrate=N/A speed=19.3x    frame=22451 fps=463 q=-0.0 size=N/A time=00:15:36.39 bitrate=N/A speed=19.3x    frame=22723 fps=463 q=-0.0 size=N/A time=00:15:47.73 bitrate=N/A speed=19.3x    frame=22987 fps=464 q=-0.0 size=N/A time=00:15:58.74 bitrate=N/A speed=19.3x    frame=23217 fps=463 q=-0.0 size=N/A time=00:16:08.34 bitrate=N/A speed=19.3x    frame=23448 fps=463 q=-0.0 size=N/A time=00:16:17.97 bitrate=N/A speed=19.3x    frame=23652 fps=463 q=-0.0 size=N/A time=00:16:26.48 bitrate=N/A speed=19.3x    frame=23890 fps=463 q=-0.0 size=N/A time=00:16:36.41 bitrate=N/A speed=19.3x    frame=24162 fps=463 q=-0.0 size=N/A time=00:16:47.75 bitrate=N/A speed=19.3x    frame=24375 fps=463 q=-0.0 size=N/A time=00:16:56.64 bitrate=N/A speed=19.3x    frame=24572 fps=462 q=-0.0 size=N/A time=00:17:04.85 bitrate=N/A speed=19.3x    frame=24844 fps=463 q=-0.0 size=N/A time=00:17:16.20 bitrate=N/A speed=19.3x    frame=25063 fps=462 q=-0.0 size=N/A time=00:17:25.33 bitrate=N/A speed=19.3x    frame=25299 fps=462 q=-0.0 size=N/A time=00:17:35.17 bitrate=N/A speed=19.3x    frame=25561 fps=463 q=-0.0 size=N/A time=00:17:46.10 bitrate=N/A speed=19.3x    frame=25784 fps=462 q=-0.0 size=N/A time=00:17:55.40 bitrate=N/A speed=19.3x    frame=26020 fps=462 q=-0.0 size=N/A time=00:18:05.25 bitrate=N/A speed=19.3x    frame=26267 fps=462 q=-0.0 size=N/A time=00:18:15.55 bitrate=N/A speed=19.3x    frame=26481 fps=462 q=-0.0 size=N/A time=00:18:24.47 bitrate=N/A speed=19.3x    frame=26725 fps=462 q=-0.0 size=N/A time=00:18:34.65 bitrate=N/A speed=19.3x    frame=26958 fps=462 q=-0.0 size=N/A time=00:18:44.37 bitrate=N/A speed=19.3x    frame=27191 fps=462 q=-0.0 size=N/A time=00:18:54.09 bitrate=N/A speed=19.3x    frame=27444 fps=462 q=-0.0 size=N/A time=00:19:04.64 bitrate=N/A speed=19.3x    frame=27698 fps=462 q=-0.0 size=N/A time=00:19:15.23 bitrate=N/A speed=19.3x    frame=27931 fps=462 q=-0.0 size=N/A time=00:19:24.95 bitrate=N/A speed=19.3x    frame=28165 fps=462 q=-0.0 size=N/A time=00:19:34.71 bitrate=N/A speed=19.3x    frame=28420 fps=463 q=-0.0 size=N/A time=00:19:45.35 bitrate=N/A speed=19.3x    frame=28650 fps=463 q=-0.0 size=N/A time=00:19:54.94 bitrate=N/A speed=19.3x    frame=28884 fps=462 q=-0.0 size=N/A time=00:20:04.70 bitrate=N/A speed=19.3x    frame=29078 fps=462 q=-0.0 size=N/A time=00:20:12.79 bitrate=N/A speed=19.3x    frame=29324 fps=462 q=-0.0 size=N/A time=00:20:23.05 bitrate=N/A speed=19.3x    frame=29538 fps=461 q=-0.0 size=N/A time=00:20:31.98 bitrate=N/A speed=19.2x    frame=29729 fps=461 q=-0.0 size=N/A time=00:20:39.94 bitrate=N/A speed=19.2x    frame=29938 fps=460 q=-0.0 size=N/A time=00:20:48.66 bitrate=N/A speed=19.2x    frame=30171 fps=460 q=-0.0 size=N/A time=00:20:58.38 bitrate=N/A speed=19.2x    frame=30391 fps=460 q=-0.0 size=N/A time=00:21:07.55 bitrate=N/A speed=19.2x    frame=30655 fps=460 q=-0.0 size=N/A time=00:21:18.56 bitrate=N/A speed=19.2x    frame=30843 fps=460 q=-0.0 size=N/A time=00:21:26.41 bitrate=N/A speed=19.2x    frame=31062 fps=459 q=-0.0 size=N/A time=00:21:35.54 bitrate=N/A speed=19.2x    frame=31275 fps=459 q=-0.0 size=N/A time=00:21:44.42 bitrate=N/A speed=19.1x    frame=31482 fps=459 q=-0.0 size=N/A time=00:21:53.06 bitrate=N/A speed=19.1x    frame=31697 fps=458 q=-0.0 size=N/A time=00:22:02.02 bitrate=N/A speed=19.1x    frame=31943 fps=458 q=-0.0 size=N/A time=00:22:12.28 bitrate=N/A speed=19.1x    frame=32224 fps=459 q=-0.0 size=N/A time=00:22:24.00 bitrate=N/A speed=19.1x    frame=32471 fps=459 q=-0.0 size=N/A time=00:22:34.31 bitrate=N/A speed=19.1x    frame=32695 fps=459 q=-0.0 size=N/A time=00:22:43.65 bitrate=N/A speed=19.1x    frame=32936 fps=459 q=-0.0 size=N/A time=00:22:53.70 bitrate=N/A speed=19.1x    frame=33144 fps=459 q=-0.0 size=N/A time=00:23:02.38 bitrate=N/A speed=19.1x    frame=33399 fps=459 q=-0.0 size=N/A time=00:23:13.01 bitrate=N/A speed=19.1x    frame=33624 fps=459 q=-0.0 size=N/A time=00:23:22.40 bitrate=N/A speed=19.1x    frame=33870 fps=459 q=-0.0 size=N/A time=00:23:32.66 bitrate=N/A speed=19.1x    frame=34101 fps=459 q=-0.0 size=N/A time=00:23:42.29 bitrate=N/A speed=19.1x    [Parsed_psnr_10 @ 00000220de98a640] PSNR y:46.982059 u:50.044741 v:50.051306 average:47.784947 min:36.356099 max:inf
[out#0/null @ 00000220dbd14780] video:14696KiB audio:267612KiB subtitle:0KiB other streams:0KiB global headers:0KiB muxing overhead: unknown
frame=34202 fps=459 q=-0.0 Lsize=N/A time=00:23:46.50 bitrate=N/A speed=19.1x    
